<mxfile host="app.diagrams.net" modified="2023-11-03T05:17:54.371Z" agent="Mozilla/5.0 (Windows NT 10.0; Win64; x64) AppleWebKit/537.36 (KHTML, like Gecko) Chrome/117.0.0.0 Safari/537.36" etag="Om_vHUhEvzjfMCYl-TES" version="22.0.8" type="github">
  <diagram name="Page-1" id="822b0af5-4adb-64df-f703-e8dfc1f81529">
    <mxGraphModel dx="1539" dy="732" grid="0" gridSize="10" guides="0" tooltips="1" connect="1" arrows="1" fold="1" page="1" pageScale="1" pageWidth="850" pageHeight="1100" background="none" math="0" shadow="0">
      <root>
        <mxCell id="0" />
        <mxCell id="1" parent="0" />
        <mxCell id="_ml1ooQkZq6HSQxFkApG-141" value="" style="shape=cylinder3;whiteSpace=wrap;html=1;boundedLbl=1;backgroundOutline=1;size=15;" vertex="1" parent="1">
          <mxGeometry x="1070" y="421" width="380" height="404" as="geometry" />
        </mxCell>
        <mxCell id="_ml1ooQkZq6HSQxFkApG-24" value="" style="rounded=1;whiteSpace=wrap;html=1;" vertex="1" parent="1">
          <mxGeometry x="440" y="490" width="577.5" height="370" as="geometry" />
        </mxCell>
        <mxCell id="_ml1ooQkZq6HSQxFkApG-21" value="" style="rounded=1;whiteSpace=wrap;html=1;" vertex="1" parent="1">
          <mxGeometry x="440" y="120" width="610" height="360" as="geometry" />
        </mxCell>
        <mxCell id="7d933b09d9755ecc-5" value="第三方系统1" style="verticalLabelPosition=bottom;aspect=fixed;html=1;verticalAlign=top;strokeColor=none;shape=mxgraph.citrix.file_server;rounded=0;shadow=0;comic=0;fontFamily=Verdana;" parent="1" vertex="1">
          <mxGeometry x="190" y="521.5" width="71" height="97" as="geometry" />
        </mxCell>
        <mxCell id="_ml1ooQkZq6HSQxFkApG-11" style="edgeStyle=orthogonalEdgeStyle;rounded=0;orthogonalLoop=1;jettySize=auto;html=1;" edge="1" parent="1" source="7d933b09d9755ecc-6" target="_ml1ooQkZq6HSQxFkApG-1">
          <mxGeometry relative="1" as="geometry" />
        </mxCell>
        <mxCell id="7d933b09d9755ecc-6" value="用户1" style="verticalLabelPosition=bottom;aspect=fixed;html=1;verticalAlign=top;strokeColor=none;shape=mxgraph.citrix.users;rounded=0;shadow=0;comic=0;fontFamily=Verdana;" parent="1" vertex="1">
          <mxGeometry x="190" y="240" width="64.5" height="55" as="geometry" />
        </mxCell>
        <mxCell id="7d933b09d9755ecc-9" value="&lt;br&gt;&lt;span style=&quot;color: rgb(0, 0, 0); font-family: Arial, 微软雅黑, &amp;quot;Microsoft YaHei&amp;quot;, STXihei, 华文细黑; font-size: 12px; font-style: normal; font-variant-ligatures: normal; font-variant-caps: normal; font-weight: 300; letter-spacing: normal; orphans: 2; text-align: left; text-indent: 0px; text-transform: none; widows: 2; word-spacing: 0px; -webkit-text-stroke-width: 0px; background-color: rgb(255, 255, 255); text-decoration-thickness: initial; text-decoration-style: initial; text-decoration-color: initial; float: none; display: inline !important;&quot;&gt;10.168.129.204&lt;br&gt;&lt;/span&gt;高可用服务器1&lt;br&gt;" style="verticalLabelPosition=bottom;aspect=fixed;html=1;verticalAlign=top;strokeColor=none;shape=mxgraph.citrix.tower_server;rounded=0;shadow=0;comic=0;fontFamily=Verdana;" parent="1" vertex="1">
          <mxGeometry x="640" y="170" width="65" height="85" as="geometry" />
        </mxCell>
        <mxCell id="7d933b09d9755ecc-33" value="用户2" style="verticalLabelPosition=bottom;aspect=fixed;html=1;verticalAlign=top;strokeColor=none;shape=mxgraph.citrix.users;rounded=0;shadow=0;comic=0;fontFamily=Verdana;" parent="1" vertex="1">
          <mxGeometry x="190" y="361" width="64.5" height="55" as="geometry" />
        </mxCell>
        <mxCell id="7d933b09d9755ecc-34" value="10.168.129.227&lt;br&gt;高可用服务器2" style="verticalLabelPosition=bottom;aspect=fixed;html=1;verticalAlign=top;strokeColor=none;shape=mxgraph.citrix.tower_server;rounded=0;shadow=0;comic=0;fontFamily=Verdana;" parent="1" vertex="1">
          <mxGeometry x="640" y="331" width="65" height="85" as="geometry" />
        </mxCell>
        <mxCell id="_ml1ooQkZq6HSQxFkApG-16" value="" style="edgeStyle=orthogonalEdgeStyle;rounded=0;orthogonalLoop=1;jettySize=auto;html=1;" edge="1" parent="1" source="_ml1ooQkZq6HSQxFkApG-1" target="_ml1ooQkZq6HSQxFkApG-15">
          <mxGeometry relative="1" as="geometry" />
        </mxCell>
        <mxCell id="_ml1ooQkZq6HSQxFkApG-1" value="bx.yuexiuproperty.cn" style="text;html=1;align=center;verticalAlign=middle;resizable=0;points=[];autosize=1;strokeColor=#6c8ebf;fillColor=#dae8fc;" vertex="1" parent="1">
          <mxGeometry x="295" y="278" width="130" height="30" as="geometry" />
        </mxCell>
        <mxCell id="_ml1ooQkZq6HSQxFkApG-18" value="" style="edgeStyle=orthogonalEdgeStyle;rounded=0;orthogonalLoop=1;jettySize=auto;html=1;" edge="1" parent="1" source="_ml1ooQkZq6HSQxFkApG-2" target="_ml1ooQkZq6HSQxFkApG-17">
          <mxGeometry relative="1" as="geometry" />
        </mxCell>
        <mxCell id="_ml1ooQkZq6HSQxFkApG-2" value="bxapi.yuexiuproperty.cn" style="text;html=1;align=center;verticalAlign=middle;resizable=0;points=[];autosize=1;strokeColor=#6c8ebf;fillColor=#dae8fc;" vertex="1" parent="1">
          <mxGeometry x="285" y="670" width="150" height="30" as="geometry" />
        </mxCell>
        <mxCell id="_ml1ooQkZq6HSQxFkApG-10" style="edgeStyle=orthogonalEdgeStyle;rounded=0;orthogonalLoop=1;jettySize=auto;html=1;" edge="1" parent="1" source="_ml1ooQkZq6HSQxFkApG-5" target="_ml1ooQkZq6HSQxFkApG-2">
          <mxGeometry relative="1" as="geometry" />
        </mxCell>
        <mxCell id="_ml1ooQkZq6HSQxFkApG-5" value="第三方系统n" style="verticalLabelPosition=bottom;aspect=fixed;html=1;verticalAlign=top;strokeColor=none;shape=mxgraph.citrix.file_server;rounded=0;shadow=0;comic=0;fontFamily=Verdana;" vertex="1" parent="1">
          <mxGeometry x="184.5" y="700" width="71" height="97" as="geometry" />
        </mxCell>
        <mxCell id="_ml1ooQkZq6HSQxFkApG-7" value="&lt;b&gt;&lt;font style=&quot;font-size: 24px;&quot;&gt;......&lt;/font&gt;&lt;/b&gt;" style="text;html=1;align=center;verticalAlign=middle;resizable=0;points=[];autosize=1;strokeColor=none;fillColor=none;" vertex="1" parent="1">
          <mxGeometry x="190" y="643" width="60" height="40" as="geometry" />
        </mxCell>
        <mxCell id="_ml1ooQkZq6HSQxFkApG-8" value="&lt;b&gt;&lt;font style=&quot;font-size: 24px;&quot;&gt;......&lt;/font&gt;&lt;/b&gt;" style="text;html=1;align=center;verticalAlign=middle;resizable=0;points=[];autosize=1;strokeColor=none;fillColor=none;" vertex="1" parent="1">
          <mxGeometry x="190" y="308" width="60" height="40" as="geometry" />
        </mxCell>
        <mxCell id="_ml1ooQkZq6HSQxFkApG-9" style="edgeStyle=orthogonalEdgeStyle;rounded=0;orthogonalLoop=1;jettySize=auto;html=1;entryX=0.066;entryY=0.193;entryDx=0;entryDy=0;entryPerimeter=0;" edge="1" parent="1" source="7d933b09d9755ecc-5" target="_ml1ooQkZq6HSQxFkApG-2">
          <mxGeometry relative="1" as="geometry" />
        </mxCell>
        <mxCell id="_ml1ooQkZq6HSQxFkApG-12" style="edgeStyle=orthogonalEdgeStyle;rounded=0;orthogonalLoop=1;jettySize=auto;html=1;entryX=0.314;entryY=1.042;entryDx=0;entryDy=0;entryPerimeter=0;" edge="1" parent="1" source="7d933b09d9755ecc-33" target="_ml1ooQkZq6HSQxFkApG-1">
          <mxGeometry relative="1" as="geometry" />
        </mxCell>
        <mxCell id="_ml1ooQkZq6HSQxFkApG-13" style="edgeStyle=orthogonalEdgeStyle;rounded=0;orthogonalLoop=1;jettySize=auto;html=1;entryX=0.191;entryY=0.93;entryDx=0;entryDy=0;entryPerimeter=0;" edge="1" parent="1" source="_ml1ooQkZq6HSQxFkApG-8" target="_ml1ooQkZq6HSQxFkApG-1">
          <mxGeometry relative="1" as="geometry" />
        </mxCell>
        <mxCell id="_ml1ooQkZq6HSQxFkApG-14" style="edgeStyle=orthogonalEdgeStyle;rounded=0;orthogonalLoop=1;jettySize=auto;html=1;entryX=0.01;entryY=0.193;entryDx=0;entryDy=0;entryPerimeter=0;" edge="1" parent="1" source="_ml1ooQkZq6HSQxFkApG-7" target="_ml1ooQkZq6HSQxFkApG-2">
          <mxGeometry relative="1" as="geometry" />
        </mxCell>
        <mxCell id="_ml1ooQkZq6HSQxFkApG-15" value="10.168.129.171&lt;br&gt;VIP" style="whiteSpace=wrap;html=1;fillColor=#f8cecc;strokeColor=#b85450;" vertex="1" parent="1">
          <mxGeometry x="460" y="276.5" width="110" height="33" as="geometry" />
        </mxCell>
        <mxCell id="_ml1ooQkZq6HSQxFkApG-70" style="edgeStyle=orthogonalEdgeStyle;rounded=0;orthogonalLoop=1;jettySize=auto;html=1;entryX=0;entryY=0.5;entryDx=0;entryDy=0;" edge="1" parent="1" source="_ml1ooQkZq6HSQxFkApG-17" target="_ml1ooQkZq6HSQxFkApG-58">
          <mxGeometry relative="1" as="geometry" />
        </mxCell>
        <mxCell id="_ml1ooQkZq6HSQxFkApG-71" style="edgeStyle=orthogonalEdgeStyle;rounded=0;orthogonalLoop=1;jettySize=auto;html=1;entryX=0;entryY=0.5;entryDx=0;entryDy=0;dashed=1;dashPattern=12 12;" edge="1" parent="1" source="_ml1ooQkZq6HSQxFkApG-17" target="_ml1ooQkZq6HSQxFkApG-64">
          <mxGeometry relative="1" as="geometry" />
        </mxCell>
        <mxCell id="_ml1ooQkZq6HSQxFkApG-17" value="10.168.129.120&lt;br&gt;VIP" style="whiteSpace=wrap;html=1;fillColor=#f8cecc;strokeColor=#b85450;" vertex="1" parent="1">
          <mxGeometry x="462" y="670" width="100" height="30" as="geometry" />
        </mxCell>
        <mxCell id="_ml1ooQkZq6HSQxFkApG-19" style="edgeStyle=orthogonalEdgeStyle;rounded=0;orthogonalLoop=1;jettySize=auto;html=1;entryX=0.015;entryY=0.447;entryDx=0;entryDy=0;entryPerimeter=0;" edge="1" parent="1" source="_ml1ooQkZq6HSQxFkApG-15" target="7d933b09d9755ecc-9">
          <mxGeometry relative="1" as="geometry" />
        </mxCell>
        <mxCell id="_ml1ooQkZq6HSQxFkApG-20" style="edgeStyle=orthogonalEdgeStyle;rounded=0;orthogonalLoop=1;jettySize=auto;html=1;exitX=1;exitY=0.5;exitDx=0;exitDy=0;entryX=-0.015;entryY=0.588;entryDx=0;entryDy=0;entryPerimeter=0;dashed=1;dashPattern=12 12;" edge="1" parent="1" source="_ml1ooQkZq6HSQxFkApG-15" target="7d933b09d9755ecc-34">
          <mxGeometry relative="1" as="geometry" />
        </mxCell>
        <mxCell id="_ml1ooQkZq6HSQxFkApG-22" value="高可用集群" style="text;html=1;align=center;verticalAlign=middle;resizable=0;points=[];autosize=1;strokeColor=none;fillColor=none;" vertex="1" parent="1">
          <mxGeometry x="445" y="140" width="80" height="30" as="geometry" />
        </mxCell>
        <mxCell id="_ml1ooQkZq6HSQxFkApG-25" value="应用服务器集群" style="text;html=1;align=center;verticalAlign=middle;resizable=0;points=[];autosize=1;strokeColor=none;fillColor=none;" vertex="1" parent="1">
          <mxGeometry x="617.5" y="498" width="110" height="30" as="geometry" />
        </mxCell>
        <mxCell id="_ml1ooQkZq6HSQxFkApG-27" value="" style="edgeStyle=orthogonalEdgeStyle;rounded=0;exitX=0;exitY=0.5;endArrow=none;dashed=0;html=1;strokeColor=#808080;strokeWidth=2;entryX=0.062;entryY=0.433;entryDx=0;entryDy=0;entryPerimeter=0;" edge="1" source="_ml1ooQkZq6HSQxFkApG-29" target="7d933b09d9755ecc-17" parent="1">
          <mxGeometry relative="1" as="geometry">
            <Array as="points">
              <mxPoint x="690" y="535" />
              <mxPoint x="690" y="560" />
              <mxPoint x="741" y="560" />
              <mxPoint x="741" y="590" />
              <mxPoint x="769" y="590" />
            </Array>
          </mxGeometry>
        </mxCell>
        <mxCell id="_ml1ooQkZq6HSQxFkApG-29" value="" style="strokeWidth=2;dashed=0;align=center;fontSize=8;shape=rect;fillColor=#80FF6C;fontStyle=1;whiteSpace=wrap;html=1;" vertex="1" parent="1">
          <mxGeometry x="705" y="529" width="12" height="12" as="geometry" />
        </mxCell>
        <mxCell id="_ml1ooQkZq6HSQxFkApG-30" value="" style="edgeStyle=orthogonalEdgeStyle;rounded=0;exitX=0;exitY=0.5;endArrow=none;dashed=0;html=1;strokeColor=#808080;strokeWidth=2;" edge="1" source="_ml1ooQkZq6HSQxFkApG-32" target="7d933b09d9755ecc-17" parent="1">
          <mxGeometry relative="1" as="geometry" />
        </mxCell>
        <mxCell id="_ml1ooQkZq6HSQxFkApG-32" value="&lt;font style=&quot;font-size: 6px;&quot;&gt;11036&lt;font style=&quot;&quot;&gt; 实例3&lt;/font&gt;&lt;/font&gt;" style="strokeWidth=2;dashed=0;align=center;fontSize=8;shape=rect;fillColor=#ff9900;strokeColor=#000000;fontStyle=1;html=1;whiteSpace=wrap;" vertex="1" parent="1">
          <mxGeometry x="880" y="528" width="70" height="22" as="geometry" />
        </mxCell>
        <mxCell id="_ml1ooQkZq6HSQxFkApG-37" value="" style="edgeStyle=orthogonalEdgeStyle;rounded=0;exitX=0;exitY=0.5;endArrow=none;dashed=0;html=1;strokeColor=#808080;strokeWidth=2;" edge="1" parent="1" source="_ml1ooQkZq6HSQxFkApG-38" target="7d933b09d9755ecc-17">
          <mxGeometry relative="1" as="geometry">
            <mxPoint x="834" y="613" as="targetPoint" />
          </mxGeometry>
        </mxCell>
        <mxCell id="_ml1ooQkZq6HSQxFkApG-38" value="&lt;font style=&quot;font-size: 6px;&quot;&gt;11037&lt;font style=&quot;&quot;&gt;&amp;nbsp;实例4&lt;/font&gt;&lt;/font&gt;" style="strokeWidth=2;dashed=0;align=center;fontSize=8;shape=rect;fillColor=#ff9900;strokeColor=#000000;fontStyle=1;html=1;whiteSpace=wrap;" vertex="1" parent="1">
          <mxGeometry x="880" y="559" width="70" height="22" as="geometry" />
        </mxCell>
        <mxCell id="_ml1ooQkZq6HSQxFkApG-41" value="" style="edgeStyle=orthogonalEdgeStyle;rounded=0;exitX=0;exitY=0.5;endArrow=none;dashed=0;html=1;strokeColor=#808080;strokeWidth=2;" edge="1" parent="1" source="_ml1ooQkZq6HSQxFkApG-42" target="7d933b09d9755ecc-17">
          <mxGeometry relative="1" as="geometry">
            <mxPoint x="833" y="614" as="targetPoint" />
          </mxGeometry>
        </mxCell>
        <mxCell id="_ml1ooQkZq6HSQxFkApG-42" value="&lt;font style=&quot;font-size: 6px;&quot;&gt;11038&lt;font style=&quot;&quot;&gt;&amp;nbsp;实例5&lt;/font&gt;&lt;/font&gt;" style="strokeWidth=2;dashed=0;align=center;fontSize=8;shape=rect;fillColor=#ff9900;strokeColor=#000000;fontStyle=1;html=1;whiteSpace=wrap;" vertex="1" parent="1">
          <mxGeometry x="880" y="590" width="70" height="22" as="geometry" />
        </mxCell>
        <mxCell id="_ml1ooQkZq6HSQxFkApG-43" value="" style="edgeStyle=orthogonalEdgeStyle;rounded=0;exitX=0;exitY=0.5;endArrow=none;dashed=0;html=1;strokeColor=#808080;strokeWidth=2;" edge="1" parent="1" source="_ml1ooQkZq6HSQxFkApG-44" target="7d933b09d9755ecc-17">
          <mxGeometry relative="1" as="geometry">
            <mxPoint x="830" y="652" as="targetPoint" />
          </mxGeometry>
        </mxCell>
        <mxCell id="_ml1ooQkZq6HSQxFkApG-44" value="&lt;font style=&quot;font-size: 6px;&quot;&gt;11039&lt;font style=&quot;&quot;&gt;&amp;nbsp;实例6&lt;/font&gt;&lt;/font&gt;" style="strokeWidth=2;dashed=0;align=center;fontSize=8;shape=rect;fillColor=#ff9900;strokeColor=#000000;fontStyle=1;html=1;whiteSpace=wrap;" vertex="1" parent="1">
          <mxGeometry x="880" y="621" width="70" height="22" as="geometry" />
        </mxCell>
        <mxCell id="_ml1ooQkZq6HSQxFkApG-46" value="&lt;font style=&quot;font-size: 6px;&quot;&gt;11036&lt;font style=&quot;&quot;&gt; 实例3&lt;/font&gt;&lt;/font&gt;" style="strokeWidth=2;dashed=0;align=center;fontSize=8;shape=rect;fillColor=#ff9900;strokeColor=#000000;fontStyle=1;html=1;whiteSpace=wrap;" vertex="1" parent="1">
          <mxGeometry x="882" y="710" width="70" height="22" as="geometry" />
        </mxCell>
        <mxCell id="_ml1ooQkZq6HSQxFkApG-47" value="" style="edgeStyle=orthogonalEdgeStyle;rounded=0;exitX=0;exitY=0.5;endArrow=none;dashed=0;html=1;strokeColor=#808080;strokeWidth=2;" edge="1" parent="1" source="_ml1ooQkZq6HSQxFkApG-48" target="7d933b09d9755ecc-38">
          <mxGeometry relative="1" as="geometry">
            <mxPoint x="829.9999999999998" y="776.5294117647059" as="targetPoint" />
          </mxGeometry>
        </mxCell>
        <mxCell id="_ml1ooQkZq6HSQxFkApG-48" value="&lt;font style=&quot;font-size: 6px;&quot;&gt;11037&lt;font style=&quot;&quot;&gt;&amp;nbsp;实例4&lt;/font&gt;&lt;/font&gt;" style="strokeWidth=2;dashed=0;align=center;fontSize=8;shape=rect;fillColor=#ff9900;strokeColor=#000000;fontStyle=1;html=1;whiteSpace=wrap;" vertex="1" parent="1">
          <mxGeometry x="882" y="741" width="70" height="22" as="geometry" />
        </mxCell>
        <mxCell id="_ml1ooQkZq6HSQxFkApG-49" value="" style="edgeStyle=orthogonalEdgeStyle;rounded=0;exitX=0;exitY=0.5;endArrow=none;dashed=0;html=1;strokeColor=#808080;strokeWidth=2;" edge="1" parent="1" source="_ml1ooQkZq6HSQxFkApG-50" target="7d933b09d9755ecc-38">
          <mxGeometry relative="1" as="geometry">
            <mxPoint x="829.9999999999998" y="776.5294117647059" as="targetPoint" />
          </mxGeometry>
        </mxCell>
        <mxCell id="_ml1ooQkZq6HSQxFkApG-50" value="&lt;font style=&quot;font-size: 6px;&quot;&gt;11038&lt;font style=&quot;&quot;&gt;&amp;nbsp;实例5&lt;/font&gt;&lt;/font&gt;" style="strokeWidth=2;dashed=0;align=center;fontSize=8;shape=rect;fillColor=#ff9900;strokeColor=#000000;fontStyle=1;html=1;whiteSpace=wrap;" vertex="1" parent="1">
          <mxGeometry x="882" y="771.5" width="70" height="22" as="geometry" />
        </mxCell>
        <mxCell id="_ml1ooQkZq6HSQxFkApG-51" value="" style="edgeStyle=orthogonalEdgeStyle;rounded=0;exitX=0;exitY=0.5;endArrow=none;dashed=0;html=1;strokeColor=#808080;strokeWidth=2;" edge="1" parent="1" source="_ml1ooQkZq6HSQxFkApG-52" target="7d933b09d9755ecc-38">
          <mxGeometry relative="1" as="geometry">
            <mxPoint x="829.9999999999998" y="776.5294117647059" as="targetPoint" />
          </mxGeometry>
        </mxCell>
        <mxCell id="_ml1ooQkZq6HSQxFkApG-52" value="&lt;font style=&quot;font-size: 6px;&quot;&gt;11039&lt;font style=&quot;&quot;&gt;&amp;nbsp;实例6&lt;/font&gt;&lt;/font&gt;" style="strokeWidth=2;dashed=0;align=center;fontSize=8;shape=rect;fillColor=#ff9900;strokeColor=#000000;fontStyle=1;html=1;whiteSpace=wrap;" vertex="1" parent="1">
          <mxGeometry x="882" y="803" width="70" height="22" as="geometry" />
        </mxCell>
        <mxCell id="_ml1ooQkZq6HSQxFkApG-54" value="" style="edgeStyle=orthogonalEdgeStyle;rounded=0;exitX=0;exitY=0.5;endArrow=none;dashed=0;html=1;strokeColor=#808080;strokeWidth=2;exitDx=0;exitDy=0;" edge="1" parent="1" source="_ml1ooQkZq6HSQxFkApG-46" target="7d933b09d9755ecc-38">
          <mxGeometry relative="1" as="geometry">
            <mxPoint x="890" y="647" as="sourcePoint" />
            <mxPoint x="840" y="699" as="targetPoint" />
          </mxGeometry>
        </mxCell>
        <mxCell id="_ml1ooQkZq6HSQxFkApG-55" value="" style="edgeStyle=orthogonalEdgeStyle;rounded=0;exitX=1;exitY=0.5;endArrow=none;dashed=0;html=1;strokeColor=#808080;strokeWidth=2;entryX=0.041;entryY=0.525;entryDx=0;entryDy=0;entryPerimeter=0;exitDx=0;exitDy=0;" edge="1" parent="1" source="_ml1ooQkZq6HSQxFkApG-56" target="7d933b09d9755ecc-17">
          <mxGeometry relative="1" as="geometry">
            <mxPoint x="530" y="639" as="targetPoint" />
            <Array as="points">
              <mxPoint x="710" y="579" />
              <mxPoint x="710" y="594" />
            </Array>
          </mxGeometry>
        </mxCell>
        <mxCell id="_ml1ooQkZq6HSQxFkApG-56" value="&lt;font style=&quot;font-size: 6px;&quot;&gt;11033&lt;font style=&quot;&quot;&gt; 实例1&lt;/font&gt;&lt;/font&gt;" style="strokeWidth=2;dashed=0;align=center;fontSize=8;shape=rect;fillColor=#ff9900;strokeColor=#000000;fontStyle=1;html=1;whiteSpace=wrap;" vertex="1" parent="1">
          <mxGeometry x="620" y="568" width="70" height="22" as="geometry" />
        </mxCell>
        <mxCell id="_ml1ooQkZq6HSQxFkApG-57" value="" style="edgeStyle=orthogonalEdgeStyle;rounded=0;exitX=1;exitY=0.5;endArrow=none;dashed=0;html=1;strokeColor=#808080;strokeWidth=2;entryX=0.012;entryY=0.53;entryDx=0;entryDy=0;entryPerimeter=0;exitDx=0;exitDy=0;" edge="1" parent="1" source="_ml1ooQkZq6HSQxFkApG-58" target="7d933b09d9755ecc-17">
          <mxGeometry relative="1" as="geometry">
            <mxPoint x="778" y="604" as="targetPoint" />
            <Array as="points">
              <mxPoint x="710" y="620" />
              <mxPoint x="710" y="594" />
              <mxPoint x="766" y="594" />
            </Array>
          </mxGeometry>
        </mxCell>
        <mxCell id="_ml1ooQkZq6HSQxFkApG-58" value="&lt;font style=&quot;font-size: 6px;&quot;&gt;11035&lt;font style=&quot;&quot;&gt; 实例2&lt;/font&gt;&lt;/font&gt;" style="strokeWidth=2;dashed=0;align=center;fontSize=8;shape=rect;fillColor=#ff9900;strokeColor=#000000;fontStyle=1;html=1;whiteSpace=wrap;" vertex="1" parent="1">
          <mxGeometry x="620" y="609" width="70" height="22" as="geometry" />
        </mxCell>
        <mxCell id="_ml1ooQkZq6HSQxFkApG-59" value="11034本机负载均衡" style="text;html=1;align=center;verticalAlign=middle;resizable=0;points=[];autosize=1;strokeColor=none;fillColor=none;" vertex="1" parent="1">
          <mxGeometry x="705" y="519" width="130" height="30" as="geometry" />
        </mxCell>
        <mxCell id="_ml1ooQkZq6HSQxFkApG-61" value="" style="edgeStyle=orthogonalEdgeStyle;rounded=0;exitX=1;exitY=0.5;endArrow=none;dashed=0;html=1;strokeColor=#808080;strokeWidth=2;entryX=0.041;entryY=0.525;entryDx=0;entryDy=0;entryPerimeter=0;exitDx=0;exitDy=0;" edge="1" parent="1" source="_ml1ooQkZq6HSQxFkApG-62">
          <mxGeometry relative="1" as="geometry">
            <mxPoint x="776" y="773" as="targetPoint" />
            <Array as="points">
              <mxPoint x="718" y="758" />
              <mxPoint x="718" y="773" />
            </Array>
          </mxGeometry>
        </mxCell>
        <mxCell id="_ml1ooQkZq6HSQxFkApG-62" value="&lt;font style=&quot;font-size: 6px;&quot;&gt;11033&lt;font style=&quot;&quot;&gt; 实例1&lt;/font&gt;&lt;/font&gt;" style="strokeWidth=2;dashed=0;align=center;fontSize=8;shape=rect;fillColor=#ff9900;strokeColor=#000000;fontStyle=1;html=1;whiteSpace=wrap;" vertex="1" parent="1">
          <mxGeometry x="628" y="747" width="70" height="22" as="geometry" />
        </mxCell>
        <mxCell id="_ml1ooQkZq6HSQxFkApG-63" value="" style="edgeStyle=orthogonalEdgeStyle;rounded=0;exitX=1;exitY=0.5;endArrow=none;dashed=0;html=1;strokeColor=#808080;strokeWidth=2;entryX=0.012;entryY=0.53;entryDx=0;entryDy=0;entryPerimeter=0;exitDx=0;exitDy=0;" edge="1" parent="1" source="_ml1ooQkZq6HSQxFkApG-64">
          <mxGeometry relative="1" as="geometry">
            <mxPoint x="774" y="773" as="targetPoint" />
            <Array as="points">
              <mxPoint x="718" y="799" />
              <mxPoint x="718" y="773" />
              <mxPoint x="774" y="773" />
            </Array>
          </mxGeometry>
        </mxCell>
        <mxCell id="_ml1ooQkZq6HSQxFkApG-64" value="&lt;font style=&quot;font-size: 6px;&quot;&gt;11035&lt;font style=&quot;&quot;&gt; 实例2&lt;/font&gt;&lt;/font&gt;" style="strokeWidth=2;dashed=0;align=center;fontSize=8;shape=rect;fillColor=#ff9900;strokeColor=#000000;fontStyle=1;html=1;whiteSpace=wrap;" vertex="1" parent="1">
          <mxGeometry x="628" y="788" width="70" height="22" as="geometry" />
        </mxCell>
        <mxCell id="_ml1ooQkZq6HSQxFkApG-140" style="edgeStyle=orthogonalEdgeStyle;rounded=0;orthogonalLoop=1;jettySize=auto;html=1;entryX=0;entryY=0.5;entryDx=0;entryDy=0;fillColor=#e1d5e7;strokeColor=#9673a6;" edge="1" parent="1" source="7d933b09d9755ecc-38" target="_ml1ooQkZq6HSQxFkApG-132">
          <mxGeometry relative="1" as="geometry">
            <Array as="points">
              <mxPoint x="850" y="772" />
              <mxPoint x="850" y="660" />
              <mxPoint x="1050" y="660" />
              <mxPoint x="1050" y="614" />
            </Array>
          </mxGeometry>
        </mxCell>
        <mxCell id="7d933b09d9755ecc-38" value="10.168.129.102&lt;br&gt;应用服务器2" style="verticalLabelPosition=bottom;aspect=fixed;html=1;verticalAlign=top;strokeColor=none;shape=mxgraph.citrix.tower_server;rounded=0;shadow=0;comic=0;fontFamily=Verdana;" parent="1" vertex="1">
          <mxGeometry x="765" y="730" width="65" height="85" as="geometry" />
        </mxCell>
        <mxCell id="_ml1ooQkZq6HSQxFkApG-138" style="edgeStyle=orthogonalEdgeStyle;rounded=0;orthogonalLoop=1;jettySize=auto;html=1;entryX=0;entryY=0.5;entryDx=0;entryDy=0;exitX=0.999;exitY=0.888;exitDx=0;exitDy=0;exitPerimeter=0;fillColor=#e1d5e7;strokeColor=#9673a6;" edge="1" parent="1" source="7d933b09d9755ecc-17" target="_ml1ooQkZq6HSQxFkApG-132">
          <mxGeometry relative="1" as="geometry">
            <Array as="points">
              <mxPoint x="850" y="625" />
              <mxPoint x="850" y="660" />
              <mxPoint x="1050" y="660" />
              <mxPoint x="1050" y="615" />
            </Array>
          </mxGeometry>
        </mxCell>
        <mxCell id="7d933b09d9755ecc-17" value="10.168.129.101&lt;br&gt;应用服务器1" style="verticalLabelPosition=bottom;aspect=fixed;html=1;verticalAlign=top;strokeColor=none;shape=mxgraph.citrix.tower_server;rounded=0;shadow=0;comic=0;fontFamily=Verdana;" parent="1" vertex="1">
          <mxGeometry x="765" y="549" width="65" height="85" as="geometry" />
        </mxCell>
        <mxCell id="_ml1ooQkZq6HSQxFkApG-67" value="" style="edgeStyle=orthogonalEdgeStyle;rounded=0;exitX=0;exitY=0.5;endArrow=none;dashed=0;html=1;strokeColor=#808080;strokeWidth=2;entryX=0.062;entryY=0.433;entryDx=0;entryDy=0;entryPerimeter=0;" edge="1" parent="1" source="_ml1ooQkZq6HSQxFkApG-68">
          <mxGeometry relative="1" as="geometry">
            <mxPoint x="769" y="766" as="targetPoint" />
            <Array as="points">
              <mxPoint x="690" y="715" />
              <mxPoint x="690" y="740" />
              <mxPoint x="741" y="740" />
              <mxPoint x="741" y="770" />
              <mxPoint x="769" y="770" />
            </Array>
          </mxGeometry>
        </mxCell>
        <mxCell id="_ml1ooQkZq6HSQxFkApG-69" value="11034本机负载均衡" style="text;html=1;align=center;verticalAlign=middle;resizable=0;points=[];autosize=1;strokeColor=none;fillColor=none;" vertex="1" parent="1">
          <mxGeometry x="705" y="700" width="130" height="30" as="geometry" />
        </mxCell>
        <mxCell id="_ml1ooQkZq6HSQxFkApG-68" value="" style="strokeWidth=2;dashed=0;align=center;fontSize=8;shape=rect;fillColor=#80FF6C;fontStyle=1;whiteSpace=wrap;html=1;" vertex="1" parent="1">
          <mxGeometry x="705" y="709" width="12" height="12" as="geometry" />
        </mxCell>
        <mxCell id="_ml1ooQkZq6HSQxFkApG-83" style="edgeStyle=orthogonalEdgeStyle;rounded=0;orthogonalLoop=1;jettySize=auto;html=1;entryX=1;entryY=0.5;entryDx=0;entryDy=0;" edge="1" parent="1" source="_ml1ooQkZq6HSQxFkApG-73" target="_ml1ooQkZq6HSQxFkApG-50">
          <mxGeometry relative="1" as="geometry">
            <Array as="points">
              <mxPoint x="972" y="212" />
              <mxPoint x="972" y="782" />
            </Array>
          </mxGeometry>
        </mxCell>
        <mxCell id="_ml1ooQkZq6HSQxFkApG-84" style="edgeStyle=orthogonalEdgeStyle;rounded=0;orthogonalLoop=1;jettySize=auto;html=1;entryX=1;entryY=0.5;entryDx=0;entryDy=0;" edge="1" parent="1" source="_ml1ooQkZq6HSQxFkApG-73" target="_ml1ooQkZq6HSQxFkApG-48">
          <mxGeometry relative="1" as="geometry">
            <Array as="points">
              <mxPoint x="972" y="212" />
              <mxPoint x="972" y="752" />
            </Array>
          </mxGeometry>
        </mxCell>
        <mxCell id="_ml1ooQkZq6HSQxFkApG-85" style="edgeStyle=orthogonalEdgeStyle;rounded=0;orthogonalLoop=1;jettySize=auto;html=1;entryX=1;entryY=0.5;entryDx=0;entryDy=0;" edge="1" parent="1" source="_ml1ooQkZq6HSQxFkApG-73" target="_ml1ooQkZq6HSQxFkApG-46">
          <mxGeometry relative="1" as="geometry">
            <Array as="points">
              <mxPoint x="972" y="212" />
              <mxPoint x="972" y="721" />
            </Array>
          </mxGeometry>
        </mxCell>
        <mxCell id="_ml1ooQkZq6HSQxFkApG-86" style="edgeStyle=orthogonalEdgeStyle;rounded=0;orthogonalLoop=1;jettySize=auto;html=1;entryX=1;entryY=0.5;entryDx=0;entryDy=0;" edge="1" parent="1" source="_ml1ooQkZq6HSQxFkApG-73" target="_ml1ooQkZq6HSQxFkApG-52">
          <mxGeometry relative="1" as="geometry">
            <Array as="points">
              <mxPoint x="972" y="212" />
              <mxPoint x="972" y="814" />
            </Array>
          </mxGeometry>
        </mxCell>
        <mxCell id="_ml1ooQkZq6HSQxFkApG-87" style="edgeStyle=orthogonalEdgeStyle;rounded=0;orthogonalLoop=1;jettySize=auto;html=1;entryX=1;entryY=0.5;entryDx=0;entryDy=0;" edge="1" parent="1" source="_ml1ooQkZq6HSQxFkApG-73" target="_ml1ooQkZq6HSQxFkApG-44">
          <mxGeometry relative="1" as="geometry">
            <Array as="points">
              <mxPoint x="970" y="212" />
              <mxPoint x="970" y="632" />
            </Array>
          </mxGeometry>
        </mxCell>
        <mxCell id="_ml1ooQkZq6HSQxFkApG-88" style="edgeStyle=orthogonalEdgeStyle;rounded=0;orthogonalLoop=1;jettySize=auto;html=1;entryX=1;entryY=0.5;entryDx=0;entryDy=0;" edge="1" parent="1" source="_ml1ooQkZq6HSQxFkApG-73" target="_ml1ooQkZq6HSQxFkApG-42">
          <mxGeometry relative="1" as="geometry">
            <Array as="points">
              <mxPoint x="970" y="212" />
              <mxPoint x="970" y="601" />
            </Array>
          </mxGeometry>
        </mxCell>
        <mxCell id="_ml1ooQkZq6HSQxFkApG-89" style="edgeStyle=orthogonalEdgeStyle;rounded=0;orthogonalLoop=1;jettySize=auto;html=1;entryX=1;entryY=0.5;entryDx=0;entryDy=0;" edge="1" parent="1" source="_ml1ooQkZq6HSQxFkApG-73" target="_ml1ooQkZq6HSQxFkApG-38">
          <mxGeometry relative="1" as="geometry">
            <Array as="points">
              <mxPoint x="970" y="212" />
              <mxPoint x="970" y="570" />
            </Array>
          </mxGeometry>
        </mxCell>
        <mxCell id="_ml1ooQkZq6HSQxFkApG-90" style="edgeStyle=orthogonalEdgeStyle;rounded=0;orthogonalLoop=1;jettySize=auto;html=1;entryX=1;entryY=0.5;entryDx=0;entryDy=0;" edge="1" parent="1" source="_ml1ooQkZq6HSQxFkApG-73" target="_ml1ooQkZq6HSQxFkApG-32">
          <mxGeometry relative="1" as="geometry">
            <Array as="points">
              <mxPoint x="970" y="212" />
              <mxPoint x="970" y="539" />
            </Array>
          </mxGeometry>
        </mxCell>
        <mxCell id="_ml1ooQkZq6HSQxFkApG-73" value="" style="verticalLabelPosition=bottom;shadow=0;dashed=0;align=center;html=1;verticalAlign=top;shape=mxgraph.electrical.logic_gates.logic_gate;operation=or;rotation=-180;fillColor=#f8cecc;strokeColor=#b85450;" vertex="1" parent="1">
          <mxGeometry x="790" y="182.5" width="100" height="60" as="geometry" />
        </mxCell>
        <mxCell id="_ml1ooQkZq6HSQxFkApG-74" style="edgeStyle=orthogonalEdgeStyle;rounded=0;orthogonalLoop=1;jettySize=auto;html=1;entryX=1;entryY=0.5;entryDx=0;entryDy=0;entryPerimeter=0;" edge="1" parent="1" source="7d933b09d9755ecc-9" target="_ml1ooQkZq6HSQxFkApG-73">
          <mxGeometry relative="1" as="geometry" />
        </mxCell>
        <mxCell id="_ml1ooQkZq6HSQxFkApG-92" style="edgeStyle=orthogonalEdgeStyle;rounded=0;orthogonalLoop=1;jettySize=auto;html=1;entryX=1;entryY=0.5;entryDx=0;entryDy=0;strokeColor=#82b366;fillColor=#d5e8d4;" edge="1" parent="1" source="_ml1ooQkZq6HSQxFkApG-75" target="_ml1ooQkZq6HSQxFkApG-52">
          <mxGeometry relative="1" as="geometry">
            <Array as="points">
              <mxPoint x="990" y="374" />
              <mxPoint x="990" y="814" />
            </Array>
          </mxGeometry>
        </mxCell>
        <mxCell id="_ml1ooQkZq6HSQxFkApG-93" style="edgeStyle=orthogonalEdgeStyle;rounded=0;orthogonalLoop=1;jettySize=auto;html=1;entryX=1;entryY=0.5;entryDx=0;entryDy=0;fillColor=#d5e8d4;strokeColor=#15B315;" edge="1" parent="1" source="_ml1ooQkZq6HSQxFkApG-75" target="_ml1ooQkZq6HSQxFkApG-50">
          <mxGeometry relative="1" as="geometry">
            <Array as="points">
              <mxPoint x="990" y="374" />
              <mxPoint x="990" y="782" />
            </Array>
          </mxGeometry>
        </mxCell>
        <mxCell id="_ml1ooQkZq6HSQxFkApG-94" style="edgeStyle=orthogonalEdgeStyle;rounded=0;orthogonalLoop=1;jettySize=auto;html=1;entryX=1;entryY=0.5;entryDx=0;entryDy=0;fillColor=#d5e8d4;strokeColor=#82b366;" edge="1" parent="1" source="_ml1ooQkZq6HSQxFkApG-75" target="_ml1ooQkZq6HSQxFkApG-48">
          <mxGeometry relative="1" as="geometry">
            <Array as="points">
              <mxPoint x="990" y="374" />
              <mxPoint x="990" y="752" />
            </Array>
          </mxGeometry>
        </mxCell>
        <mxCell id="_ml1ooQkZq6HSQxFkApG-95" style="edgeStyle=orthogonalEdgeStyle;rounded=0;orthogonalLoop=1;jettySize=auto;html=1;entryX=1;entryY=0.5;entryDx=0;entryDy=0;fillColor=#d5e8d4;strokeColor=#82b366;" edge="1" parent="1" source="_ml1ooQkZq6HSQxFkApG-75" target="_ml1ooQkZq6HSQxFkApG-46">
          <mxGeometry relative="1" as="geometry">
            <Array as="points">
              <mxPoint x="990" y="374" />
              <mxPoint x="990" y="721" />
            </Array>
          </mxGeometry>
        </mxCell>
        <mxCell id="_ml1ooQkZq6HSQxFkApG-97" style="edgeStyle=orthogonalEdgeStyle;rounded=0;orthogonalLoop=1;jettySize=auto;html=1;entryX=1;entryY=0.5;entryDx=0;entryDy=0;fillColor=#d5e8d4;strokeColor=#82b366;" edge="1" parent="1">
          <mxGeometry relative="1" as="geometry">
            <mxPoint x="880" y="373" as="sourcePoint" />
            <mxPoint x="950" y="631" as="targetPoint" />
            <Array as="points">
              <mxPoint x="990" y="373" />
              <mxPoint x="990" y="631" />
            </Array>
          </mxGeometry>
        </mxCell>
        <mxCell id="_ml1ooQkZq6HSQxFkApG-98" style="edgeStyle=orthogonalEdgeStyle;rounded=0;orthogonalLoop=1;jettySize=auto;html=1;entryX=1;entryY=0.5;entryDx=0;entryDy=0;fillColor=#d5e8d4;strokeColor=#82b366;" edge="1" parent="1" source="_ml1ooQkZq6HSQxFkApG-75" target="_ml1ooQkZq6HSQxFkApG-42">
          <mxGeometry relative="1" as="geometry">
            <Array as="points">
              <mxPoint x="990" y="374" />
              <mxPoint x="990" y="601" />
            </Array>
          </mxGeometry>
        </mxCell>
        <mxCell id="_ml1ooQkZq6HSQxFkApG-99" style="edgeStyle=orthogonalEdgeStyle;rounded=0;orthogonalLoop=1;jettySize=auto;html=1;entryX=1;entryY=0.5;entryDx=0;entryDy=0;fillColor=#d5e8d4;strokeColor=#82b366;" edge="1" parent="1" source="_ml1ooQkZq6HSQxFkApG-75" target="_ml1ooQkZq6HSQxFkApG-38">
          <mxGeometry relative="1" as="geometry">
            <Array as="points">
              <mxPoint x="990" y="374" />
              <mxPoint x="990" y="570" />
            </Array>
          </mxGeometry>
        </mxCell>
        <mxCell id="_ml1ooQkZq6HSQxFkApG-100" style="edgeStyle=orthogonalEdgeStyle;rounded=0;orthogonalLoop=1;jettySize=auto;html=1;entryX=1;entryY=0.5;entryDx=0;entryDy=0;fillColor=#d5e8d4;strokeColor=#82b366;" edge="1" parent="1" source="_ml1ooQkZq6HSQxFkApG-75" target="_ml1ooQkZq6HSQxFkApG-32">
          <mxGeometry relative="1" as="geometry">
            <Array as="points">
              <mxPoint x="990" y="374" />
              <mxPoint x="990" y="539" />
            </Array>
          </mxGeometry>
        </mxCell>
        <mxCell id="_ml1ooQkZq6HSQxFkApG-75" value="" style="verticalLabelPosition=bottom;shadow=0;dashed=0;align=center;html=1;verticalAlign=top;shape=mxgraph.electrical.logic_gates.logic_gate;operation=or;rotation=-180;fillColor=#f8cecc;strokeColor=#b85450;" vertex="1" parent="1">
          <mxGeometry x="780" y="343.5" width="100" height="60" as="geometry" />
        </mxCell>
        <mxCell id="_ml1ooQkZq6HSQxFkApG-76" style="edgeStyle=orthogonalEdgeStyle;rounded=0;orthogonalLoop=1;jettySize=auto;html=1;entryX=0.892;entryY=0.506;entryDx=0;entryDy=0;entryPerimeter=0;" edge="1" parent="1" source="7d933b09d9755ecc-34" target="_ml1ooQkZq6HSQxFkApG-75">
          <mxGeometry relative="1" as="geometry" />
        </mxCell>
        <mxCell id="_ml1ooQkZq6HSQxFkApG-101" value="负载均衡" style="text;html=1;align=center;verticalAlign=middle;resizable=0;points=[];autosize=1;strokeColor=none;fillColor=none;" vertex="1" parent="1">
          <mxGeometry x="820" y="240" width="70" height="30" as="geometry" />
        </mxCell>
        <mxCell id="_ml1ooQkZq6HSQxFkApG-102" value="负载均衡" style="text;html=1;align=center;verticalAlign=middle;resizable=0;points=[];autosize=1;strokeColor=none;fillColor=none;" vertex="1" parent="1">
          <mxGeometry x="812" y="403.5" width="70" height="30" as="geometry" />
        </mxCell>
        <mxCell id="_ml1ooQkZq6HSQxFkApG-103" value="10.98.116.40&lt;br&gt;数据库服务器2" style="verticalLabelPosition=bottom;aspect=fixed;html=1;verticalAlign=top;strokeColor=none;shape=mxgraph.citrix.tower_server;rounded=0;shadow=0;comic=0;fontFamily=Verdana;" vertex="1" parent="1">
          <mxGeometry x="1320" y="482" width="65" height="85" as="geometry" />
        </mxCell>
        <mxCell id="_ml1ooQkZq6HSQxFkApG-104" value="10.98.116.41&lt;br&gt;数据库服务器2" style="verticalLabelPosition=bottom;aspect=fixed;html=1;verticalAlign=top;strokeColor=none;shape=mxgraph.citrix.tower_server;rounded=0;shadow=0;comic=0;fontFamily=Verdana;" vertex="1" parent="1">
          <mxGeometry x="1320" y="642.5" width="65" height="85" as="geometry" />
        </mxCell>
        <mxCell id="_ml1ooQkZq6HSQxFkApG-130" value="10.98.116.42&lt;br&gt;VIP" style="whiteSpace=wrap;html=1;fillColor=#f8cecc;strokeColor=#b85450;" vertex="1" parent="1">
          <mxGeometry x="1160" y="508" width="110" height="33" as="geometry" />
        </mxCell>
        <mxCell id="_ml1ooQkZq6HSQxFkApG-131" value="10.98.116.43&lt;br&gt;VIP" style="whiteSpace=wrap;html=1;fillColor=#f8cecc;strokeColor=#b85450;" vertex="1" parent="1">
          <mxGeometry x="1160" y="673" width="110" height="33" as="geometry" />
        </mxCell>
        <mxCell id="_ml1ooQkZq6HSQxFkApG-133" style="edgeStyle=orthogonalEdgeStyle;rounded=0;orthogonalLoop=1;jettySize=auto;html=1;entryX=0;entryY=0.5;entryDx=0;entryDy=0;" edge="1" parent="1" source="_ml1ooQkZq6HSQxFkApG-132" target="_ml1ooQkZq6HSQxFkApG-130">
          <mxGeometry relative="1" as="geometry" />
        </mxCell>
        <mxCell id="_ml1ooQkZq6HSQxFkApG-134" style="edgeStyle=orthogonalEdgeStyle;rounded=0;orthogonalLoop=1;jettySize=auto;html=1;entryX=0;entryY=0.5;entryDx=0;entryDy=0;" edge="1" parent="1" source="_ml1ooQkZq6HSQxFkApG-132" target="_ml1ooQkZq6HSQxFkApG-131">
          <mxGeometry relative="1" as="geometry" />
        </mxCell>
        <mxCell id="_ml1ooQkZq6HSQxFkApG-132" value="10.98.116.44&lt;br&gt;高可用ip" style="whiteSpace=wrap;html=1;fillColor=#f8cecc;strokeColor=#b85450;" vertex="1" parent="1">
          <mxGeometry x="1080" y="598" width="110" height="33" as="geometry" />
        </mxCell>
        <mxCell id="_ml1ooQkZq6HSQxFkApG-136" style="edgeStyle=orthogonalEdgeStyle;rounded=0;orthogonalLoop=1;jettySize=auto;html=1;entryX=0.015;entryY=0.51;entryDx=0;entryDy=0;entryPerimeter=0;" edge="1" parent="1" source="_ml1ooQkZq6HSQxFkApG-130" target="_ml1ooQkZq6HSQxFkApG-103">
          <mxGeometry relative="1" as="geometry" />
        </mxCell>
        <mxCell id="_ml1ooQkZq6HSQxFkApG-137" style="edgeStyle=orthogonalEdgeStyle;rounded=0;orthogonalLoop=1;jettySize=auto;html=1;entryX=0.097;entryY=0.543;entryDx=0;entryDy=0;entryPerimeter=0;" edge="1" parent="1" source="_ml1ooQkZq6HSQxFkApG-131" target="_ml1ooQkZq6HSQxFkApG-104">
          <mxGeometry relative="1" as="geometry" />
        </mxCell>
        <mxCell id="_ml1ooQkZq6HSQxFkApG-142" value="8080" style="text;html=1;align=center;verticalAlign=middle;resizable=0;points=[];autosize=1;strokeColor=none;fillColor=none;" vertex="1" parent="1">
          <mxGeometry x="865" y="173" width="50" height="30" as="geometry" />
        </mxCell>
        <mxCell id="_ml1ooQkZq6HSQxFkApG-143" value="11034" style="text;html=1;align=center;verticalAlign=middle;resizable=0;points=[];autosize=1;strokeColor=none;fillColor=none;" vertex="1" parent="1">
          <mxGeometry x="863" y="220" width="60" height="30" as="geometry" />
        </mxCell>
        <mxCell id="_ml1ooQkZq6HSQxFkApG-144" value="8080" style="text;html=1;align=center;verticalAlign=middle;resizable=0;points=[];autosize=1;strokeColor=none;fillColor=none;" vertex="1" parent="1">
          <mxGeometry x="856" y="335" width="50" height="30" as="geometry" />
        </mxCell>
        <mxCell id="_ml1ooQkZq6HSQxFkApG-145" value="11034" style="text;html=1;align=center;verticalAlign=middle;resizable=0;points=[];autosize=1;strokeColor=none;fillColor=none;" vertex="1" parent="1">
          <mxGeometry x="853" y="380" width="60" height="30" as="geometry" />
        </mxCell>
        <mxCell id="_ml1ooQkZq6HSQxFkApG-146" value="数据库集群" style="text;html=1;align=center;verticalAlign=middle;resizable=0;points=[];autosize=1;strokeColor=none;fillColor=none;" vertex="1" parent="1">
          <mxGeometry x="1210" y="424" width="78" height="26" as="geometry" />
        </mxCell>
      </root>
    </mxGraphModel>
  </diagram>
</mxfile>
